<svg width="16" height="16" viewBox="0 0 16 16" fill="none" xmlns="http://www.w3.org/2000/svg">
<path d="M1 3.37255C1 2.61451 1.52233 2 2.16667 2H13.8333C14.4777 2 15 2.61451 15 3.37255V12.2941C15 13.0522 14.4777 13.6667 13.8333 13.6667H2.16667C1.52233 13.6667 1 13.0522 1 12.2941V3.37255Z" fill="#363636"/>
<path d="M8 7.78125C8.77796 7.78125 9.46523 7.97083 10.0236 8.21875C10.5391 8.45208 10.8636 8.97708 10.8636 9.54583V9.84722C10.8636 10.1146 10.6489 10.3333 10.3864 10.3333H5.61364C5.35114 10.3333 5.13636 10.1146 5.13636 9.84722V9.55069C5.13636 8.97708 5.46091 8.45208 5.97636 8.22361C6.53477 7.97083 7.22205 7.78125 8 7.78125ZM4.65909 7.90278C5.18409 7.90278 5.51316 7.46528 5.51316 6.93056C5.51316 6.39583 5.18409 5.95833 4.65909 5.95833C4.13409 5.95833 3.70455 6.39583 3.70455 6.93056C3.70455 7.46528 4.13409 7.90278 4.65909 7.90278ZM5.19841 8.4375C5.02182 8.40833 4.84523 8.38889 4.65909 8.38889C4.18659 8.38889 3.73795 8.49097 3.33227 8.67083C3.15936 8.74611 3.01199 8.87148 2.90846 9.03137C2.80494 9.19126 2.74984 9.37861 2.75 9.57014V9.84722C2.75 10.1146 2.96477 10.3333 3.22727 10.3333H5.07749C5.07749 10.3333 4.89773 10.0076 4.89773 9.60417C4.89773 9.20069 5.0075 8.76806 5.19841 8.4375ZM11.3409 7.90278C11.8659 7.90278 12.2955 7.46528 12.2955 6.93056C12.2955 6.39583 11.8659 5.95833 11.3409 5.95833C10.8159 5.95833 10.3864 6.39583 10.3864 6.93056C10.3864 7.46528 10.8159 7.90278 11.3409 7.90278ZM13.25 9.57014C13.25 9.17639 13.0209 8.82639 12.6677 8.67083C12.2492 8.48484 11.7975 8.38885 11.3409 8.38889C11.1548 8.38889 10.9782 8.40833 10.8016 8.4375C10.9925 8.76806 11.1023 9.14722 11.1023 9.55069V10.3333H12.7727C13.0352 10.3333 13.25 10.1146 13.25 9.84722V9.57014ZM8 4.5C8.79227 4.5 9.43182 5.15139 9.43182 5.95833C9.43182 6.76528 8.79227 7.41667 8 7.41667C7.20773 7.41667 6.56818 6.76528 6.56818 5.95833C6.56818 5.15139 7.20773 4.5 8 4.5Z" fill="white"/>
<line x1="9.275" y1="12.4333" x2="12.85" y2="12.4333" stroke="white" stroke-width="0.8" stroke-linecap="round"/>
</svg>
