<svg width="16" height="16" viewBox="0 0 16 16" fill="none" xmlns="http://www.w3.org/2000/svg">
<path d="M1 3.5C1 3.22386 1.22386 3 1.5 3H14.1343C14.5191 3 14.7597 3.41653 14.5674 3.74986L12.4518 7.41681C12.3626 7.57144 12.3626 7.7619 12.4518 7.91653L14.5674 11.5835C14.7597 11.9168 14.5191 12.3333 14.1343 12.3333H1.5C1.22386 12.3333 1 12.1095 1 11.8333V3.5Z" fill="#363636"/>
<path d="M5.82803 7.58048H4.01072V8.76538H6.14354V9.49759H3.06421V5.07397H6.13723V5.81226H4.01072V6.86651H5.82803V7.58048Z" fill="white"/>
<path d="M10.5636 9.49759H9.61712L7.77457 6.587V9.49759H6.82806V5.07397H7.77457L9.62027 7.99064V5.07397H10.5636V9.49759Z" fill="white"/>
</svg>
