<svg width="16" height="16" viewBox="0 0 16 16" fill="none" xmlns="http://www.w3.org/2000/svg">
<circle cx="8" cy="8" r="7" fill="#363636"/>
<path d="M10.25 6.1H9.875V5.75C9.875 4.78505 9.03387 4 8 4C6.96613 4 6.125 4.78505 6.125 5.75V6.1H5.75C5.55109 6.1 5.36032 6.17375 5.21967 6.30503C5.07902 6.4363 5 6.61435 5 6.8V10.3C5 10.4857 5.07902 10.6637 5.21967 10.795C5.36032 10.9262 5.55109 11 5.75 11H10.25C10.4489 11 10.6397 10.9262 10.7803 10.795C10.921 10.6637 11 10.4857 11 10.3V6.8C11 6.61435 10.921 6.4363 10.7803 6.30503C10.6397 6.17375 10.4489 6.1 10.25 6.1ZM6.875 5.75C6.875 5.1711 7.37975 4.7 8 4.7C8.62025 4.7 9.125 5.1711 9.125 5.75V6.1H6.875V5.75ZM8.375 8.80305V9.6H7.625V8.80305C7.40188 8.68195 7.25 8.45865 7.25 8.2C7.25 8.01435 7.32902 7.8363 7.46967 7.70503C7.61032 7.57375 7.80109 7.5 8 7.5C8.19891 7.5 8.38968 7.57375 8.53033 7.70503C8.67098 7.8363 8.75 8.01435 8.75 8.2C8.75 8.4583 8.59812 8.6816 8.375 8.80305Z" fill="white"/>
</svg>
